<svg xmlns="http://www.w3.org/2000/svg" fill="none" viewBox="0 0 356 76">
  <path fill="#1C3A13" d="M16 31.25a34 34 0 0 1 3.45-3.2 21 21 0 0 1 3.8-2.45A19.4 19.4 0 0 1 27.6 24q2.35-.6 5-.6 4.2 0 7.35 1.4 3.2 1.4 5.35 3.95 2.15 2.5 3.25 6.05t1.1 7.85V75h-9.8V42.65q0-5.45-2.5-8.45-2.5-3.05-7.65-3.05-3.75 0-7.05 1.8-3.25 1.75-6.05 4.8V75H6.85V24.2h5.85q2.05 0 2.55 1.95zm74.107 21.2q-5.95.2-10.1.95-4.15.7-6.75 1.9t-3.75 2.85a6.02 6.02 0 0 0-1.15 3.6q0 1.9.6 3.3.65 1.35 1.7 2.25a7.3 7.3 0 0 0 2.55 1.25q1.45.4 3.15.4 2.25 0 4.1-.45a17.2 17.2 0 0 0 3.55-1.25q1.65-.85 3.15-2.05t2.95-2.75zm-28.6-21.15q4.25-4.05 9.2-6.05 5-2 10.95-2 4.35 0 7.7 1.45 3.35 1.4 5.65 3.95t3.45 6.1q1.2 3.55 1.2 7.85V75h-4.35q-1.45 0-2.2-.45-.75-.5-1.2-1.8l-1.05-4.45a45 45 0 0 1-3.85 3.2q-1.9 1.35-4 2.35a20.6 20.6 0 0 1-4.4 1.45q-2.35.5-5.2.5-3 0-5.65-.8-2.6-.85-4.55-2.55t-3.1-4.25q-1.1-2.55-1.1-5.95 0-3 1.6-5.75 1.65-2.8 5.3-5 3.7-2.2 9.6-3.6 5.95-1.4 14.6-1.6v-3.7q0-5.75-2.45-8.6t-7.2-2.85q-3.2 0-5.4.8-2.15.8-3.75 1.8a86 86 0 0 0-2.75 1.75q-1.15.8-2.4.8-1 0-1.75-.55-.7-.55-1.15-1.3zm60.352-.05a34 34 0 0 1 3.45-3.2 21 21 0 0 1 3.8-2.45 19.4 19.4 0 0 1 4.35-1.6q2.35-.6 5-.6 4.2 0 7.35 1.4 3.2 1.4 5.35 3.95 2.15 2.5 3.25 6.05t1.1 7.85V75h-9.8V42.65q0-5.45-2.5-8.45-2.499-3.05-7.65-3.05-3.75 0-7.05 1.8-3.25 1.75-6.05 4.8V75h-9.75V24.2h5.85q2.05 0 2.55 1.95zM227.271 75h-13.39q-1.625 0-2.6-.845a7.8 7.8 0 0 1-1.495-1.885l-15.275-24.505q-.585 2.21-1.56 3.835l-13.845 20.67a11.3 11.3 0 0 1-1.625 1.885q-.844.845-2.275.845h-12.48l22.945-34.19L163.636 8.7h13.39q1.626 0 2.34.52.78.455 1.365 1.43l15.015 23.4q.585-2.145 1.82-4.095l12.675-19.045q1.3-2.21 3.315-2.21h12.805l-22.035 31.525z"/>
  <circle cx="318.5" cy="37.5" r="37.5" fill="#C4CFBE" style="mix-blend-mode:multiply"/>
  <circle cx="280.5" cy="37.5" r="37.5" fill="#AFBDB2" style="mix-blend-mode:multiply"/>
</svg>
